TITLE ""
FILE "Disc1Track72.mp3" MP3
  TRACK 01 AUDIO
    TITLE "Disc1Track72_01"
    INDEX 01 00:00:00
  TRACK 02 AUDIO
    TITLE "Disc1Track72_02"
    INDEX 01 00:00:71
  TRACK 03 AUDIO
    TITLE "Disc1Track72_03"
    INDEX 01 00:02:64
  TRACK 04 AUDIO
    TITLE "Disc1Track72_04"
    INDEX 01 00:03:69
  TRACK 05 AUDIO
    TITLE "Disc1Track72_05"
    INDEX 01 00:06:56
  TRACK 06 AUDIO
    TITLE "Disc1Track72_06"
    INDEX 01 00:07:12
  TRACK 07 AUDIO
    TITLE "Disc1Track72_07"
    INDEX 01 00:08:27
  TRACK 08 AUDIO
    TITLE "Disc1Track72_08"
    INDEX 01 00:09:27
  TRACK 09 AUDIO
    TITLE "Disc1Track72_09"
    INDEX 01 00:10:46
  TRACK 10 AUDIO
    TITLE "Disc1Track72_10"
    INDEX 01 00:12:62
  TRACK 11 AUDIO
    TITLE "Disc1Track72_11"
    INDEX 01 00:13:23
  TRACK 12 AUDIO
    TITLE "Disc1Track72_12"
    INDEX 01 00:14:42
  TRACK 13 AUDIO
    TITLE "Disc1Track72_13"
    INDEX 01 00:15:35
  TRACK 14 AUDIO
    TITLE "Disc1Track72_14"
    INDEX 01 00:16:56
  TRACK 15 AUDIO
    TITLE "Disc1Track72_15"
    INDEX 01 00:19:33
  TRACK 16 AUDIO
    TITLE "Disc1Track72_16"
    INDEX 01 00:19:64
  TRACK 17 AUDIO
    TITLE "Disc1Track72_17"
    INDEX 01 00:21:12
  TRACK 18 AUDIO
    TITLE "Disc1Track72_18"
    INDEX 01 00:22:14
  TRACK 19 AUDIO
    TITLE "Disc1Track72_19"
    INDEX 01 00:23:39
  TRACK 20 AUDIO
    TITLE "Disc1Track72_20"
    INDEX 01 00:24:07
  TRACK 21 AUDIO
    TITLE "Disc1Track72_21"
    INDEX 01 00:25:24
  TRACK 22 AUDIO
    TITLE "Disc1Track72_22"
    INDEX 01 00:26:66
  TRACK 23 AUDIO
    TITLE "Disc1Track72_23"
    INDEX 01 00:28:03
  TRACK 24 AUDIO
    TITLE "Disc1Track72_24"
    INDEX 01 00:32:14
  TRACK 25 AUDIO
    TITLE "Disc1Track72_25"
    INDEX 01 00:32:44
  TRACK 26 AUDIO
    TITLE "Disc1Track72_26"
    INDEX 01 00:33:57
  TRACK 27 AUDIO
    TITLE "Disc1Track72_27"
    INDEX 01 00:34:68
  TRACK 28 AUDIO
    TITLE "Disc1Track72_28"
    INDEX 01 00:36:08
  TRACK 29 AUDIO
    TITLE "Disc1Track72_29"
    INDEX 01 00:41:50
  TRACK 30 AUDIO
    TITLE "Disc1Track72_30"
    INDEX 01 00:42:09
  TRACK 31 AUDIO
    TITLE "Disc1Track72_31"
    INDEX 01 00:43:43
  TRACK 32 AUDIO
    TITLE "Disc1Track72_32"
    INDEX 01 00:44:70
  TRACK 33 AUDIO
    TITLE "Disc1Track72_33"
    INDEX 01 00:46:34
  TRACK 34 AUDIO
    TITLE "Disc1Track72_34"
    INDEX 01 00:46:71
  TRACK 35 AUDIO
    TITLE "Disc1Track72_35"
    INDEX 01 00:48:27
  TRACK 36 AUDIO
    TITLE "Disc1Track72_36"
    INDEX 01 00:49:15
  TRACK 37 AUDIO
    TITLE "Disc1Track72_37"
    INDEX 01 00:50:49
  TRACK 38 AUDIO
    TITLE "Disc1Track72_38"
    INDEX 01 00:51:06
  TRACK 39 AUDIO
    TITLE "Disc1Track72_39"
    INDEX 01 00:52:13
  TRACK 40 AUDIO
    TITLE "Disc1Track72_40"
    INDEX 01 00:53:10
  TRACK 41 AUDIO
    TITLE "Disc1Track72_41"
    INDEX 01 00:54:20
  TRACK 42 AUDIO
    TITLE "Disc1Track72_42"
    INDEX 01 00:57:26
  TRACK 43 AUDIO
    TITLE "Disc1Track72_43"
    INDEX 01 00:57:59
  TRACK 44 AUDIO
    TITLE "Disc1Track72_44"
    INDEX 01 00:59:03
  TRACK 45 AUDIO
    TITLE "Disc1Track72_45"
    INDEX 01 01:01:35
  TRACK 46 AUDIO
    TITLE "Disc1Track72_46"
    INDEX 01 01:02:54
  TRACK 47 AUDIO
    TITLE "Disc1Track72_47"
    INDEX 01 01:06:21
  TRACK 48 AUDIO
    TITLE "Disc1Track72_48"
    INDEX 01 01:06:58
  TRACK 49 AUDIO
    TITLE "Disc1Track72_49"
    INDEX 01 01:08:12
  TRACK 50 AUDIO
    TITLE "Disc1Track72_50"
    INDEX 01 01:11:16
  TRACK 51 AUDIO
    TITLE "Disc1Track72_51"
    INDEX 01 01:12:45
  TRACK 52 AUDIO
    TITLE "Disc1Track72_52"
    INDEX 01 01:16:53
  TRACK 53 AUDIO
    TITLE "Disc1Track72_53"
    INDEX 01 01:17:09
  TRACK 54 AUDIO
    TITLE "Disc1Track72_54"
    INDEX 01 01:18:54
  TRACK 55 AUDIO
    TITLE "Disc1Track72_55"
    INDEX 01 01:20:72
  TRACK 56 AUDIO
    TITLE "Disc1Track72_56"
    INDEX 01 01:22:42
  TRACK 57 AUDIO
    TITLE "Disc1Track72_57"
    INDEX 01 01:25:24
  TRACK 58 AUDIO
    TITLE "Disc1Track72_58"
    INDEX 01 01:25:54
  TRACK 59 AUDIO
    TITLE "Disc1Track72_59"
    INDEX 01 01:27:09
  TRACK 60 AUDIO
    TITLE "Disc1Track72_60"
    INDEX 01 01:29:36
  TRACK 61 AUDIO
    TITLE "Disc1Track72_61"
    INDEX 01 01:30:66
  TRACK 62 AUDIO
    TITLE "Disc1Track72_62"
    INDEX 01 01:31:25
  TRACK 63 AUDIO
    TITLE "Disc1Track72_63"
    INDEX 01 01:32:58
  TRACK 64 AUDIO
    TITLE "Disc1Track72_64"
    INDEX 01 01:34:19
  TRACK 65 AUDIO
    TITLE "Disc1Track72_65"
    INDEX 01 01:35:52
  TRACK 66 AUDIO
    TITLE "Disc1Track72_66"
    INDEX 01 01:38:70
